<?xml version="1.0" standalone="no"?> <!DOCTYPE svg PUBLIC "-//W3C//DTD SVG 20010904//EN" "http://www.w3.org/TR/2001/REC-SVG-20010904/DTD/svg10.dtd"><svg version="1.0" xmlns="http://www.w3.org/2000/svg" width="512.000000pt" height="512.000000pt" viewBox="0 0 512.000000 512.000000" preserveAspectRatio="xMidYMid meet"><g transform="translate(0.000000,512.000000) scale(0.100000,-0.100000)" fill="#FFFFFF" stroke="none"><path d="M2900 4666 c-319 -69 -560 -317 -651 -672 -18 -72 -22 -115 -22 -229
0 -160 19 -247 77 -369 89 -183 345 -462 612 -664 210 -159 589 -369 647 -358
15 3 86 35 157 70 391 195 751 489 983 801 73 99 109 169 143 282 24 78 27
105 27 238 0 130 -3 163 -25 245 -84 311 -283 537 -558 631 -91 32 -102 33
-240 33 -129 -1 -155 -4 -235 -28 -49 -15 -130 -45 -179 -66 l-88 -39 -41 21
c-190 96 -441 139 -607 104z m344 -165 c44 -12 126 -44 184 -71 57 -28 112
-50 122 -50 10 0 64 22 121 49 153 73 240 95 379 95 91 1 130 -4 185 -21 392
-123 609 -650 426 -1037 -49 -105 -164 -249 -322 -401 -200 -193 -435 -360
-681 -483 l-106 -54 -109 55 c-284 144 -485 289 -714 517 -270 268 -352 422
-353 660 0 364 227 686 534 755 84 19 230 13 334 -14z"/><path d="M3530 4283 c-44 -16 -50 -33 -50 -134 l0 -98 -37 -6 c-130 -22 -208
-78 -257 -185 -39 -83 -37 -185 4 -268 36 -71 83 -115 157 -149 46 -21 73 -25
191 -30 153 -5 181 -12 217 -55 77 -92 34 -235 -80 -267 -24 -6 -131 -11 -261
-11 -248 0 -254 -2 -254 -72 0 -63 22 -73 181 -76 l139 -4 0 -97 c0 -85 3
-100 20 -116 28 -25 76 -23 103 4 19 18 22 35 25 116 4 94 4 95 30 100 100 20
137 38 192 94 41 41 62 71 75 111 39 113 16 233 -59 317 -77 85 -162 112 -355
113 -77 0 -100 4 -127 21 -104 64 -99 228 9 286 27 16 66 18 274 21 224 3 243
5 259 23 24 27 22 75 -5 102 -20 20 -33 22 -155 25 l-134 4 -4 93 c-2 79 -6
98 -23 114 -23 22 -53 32 -75 24z"/><path d="M25 2335 c-14 -13 -25 -36 -25 -50 0 -14 11 -37 25 -50 l24 -25 656
0 655 0 0 -645 0 -645 -661 -2 -661 -3 -19 -24 c-25 -30 -24 -62 2 -95 l20
-26 715 0 c701 0 714 0 734 20 16 16 20 33 20 80 l0 60 136 0 c74 0 144 4 154
10 10 5 23 23 28 40 l11 30 110 0 109 0 761 -280 c418 -154 772 -280 788 -280
16 0 208 36 428 80 l400 80 342 343 c274 273 343 348 343 368 0 56 -117 163
-211 194 -72 24 -176 17 -249 -18 l-55 -26 -55 27 c-47 23 -67 27 -145 27 -78
0 -97 -4 -145 -27 -64 -32 -225 -150 -355 -261 l-90 -77 -96 0 -95 0 -97 72
c-53 40 -95 73 -94 75 2 1 48 -9 103 -24 140 -37 299 -39 364 -4 74 39 117 78
163 149 84 127 114 238 73 271 -7 6 -272 103 -588 216 l-576 205 -135 0 c-121
0 -137 -2 -161 -21 -33 -26 -36 -79 -6 -109 18 -18 33 -20 148 -20 l127 0 522
-186 523 -187 -27 -49 c-54 -99 -122 -148 -208 -148 -104 0 -339 66 -619 175
l-169 65 -132 0 c-119 0 -135 -2 -159 -21 -33 -26 -36 -79 -6 -109 18 -18 34
-20 143 -20 l122 0 319 -240 319 -240 351 0 351 1 105 90 c138 119 295 238
345 260 22 10 59 19 83 19 39 0 114 -28 126 -48 3 -5 -124 -137 -282 -295
l-287 -287 -377 -75 -378 -76 -761 280 -762 281 -128 0 -129 0 0 405 0 405
285 0 c272 0 286 1 305 20 30 30 27 83 -6 109 -26 20 -39 21 -305 21 -269 0
-279 1 -279 19 0 11 -12 29 -26 40 -24 19 -40 21 -160 21 l-134 0 0 59 c0 52
-3 62 -26 80 -26 21 -34 21 -731 21 l-704 0 -24 -25z m1655 -770 l0 -485 -85
0 -85 0 0 485 0 485 85 0 85 0 0 -485z m2780 -194 c0 -5 -30 -33 -67 -63 -37
-29 -92 -74 -122 -100 l-54 -48 -84 0 -84 0 33 28 c64 56 204 155 243 173 41
19 135 26 135 10z"/></g></svg>
