<?xml version="1.0" standalone="no"?>
<!DOCTYPE svg PUBLIC "-//W3C//DTD SVG 20010904//EN"
 "http://www.w3.org/TR/2001/REC-SVG-20010904/DTD/svg10.dtd">
<svg version="1.0" xmlns="http://www.w3.org/2000/svg"
 width="128.000000pt" height="128.000000pt" viewBox="0 0 128.000000 128.000000"
 preserveAspectRatio="xMidYMid meet">

<g transform="translate(0.000000,128.000000) scale(0.100000,-0.100000)"
fill="#FFFFFF" stroke="none">
<path d="M345 984 c-154 -86 -293 -169 -310 -185 l-30 -29 -3 -258 c-3 -287 0
-303 68 -350 l33 -22 537 0 537 0 33 23 c68 46 71 62 68 349 l-3 258 -30 29
c-32 32 -583 341 -606 341 -8 0 -140 -71 -294 -156z m581 -39 c253 -141 314
-180 314 -206 0 -7 -220 -142 -254 -155 -13 -5 -13 0 0 42 18 61 18 96 -2 142
-53 128 -219 173 -316 85 -15 -13 -22 -14 -41 -4 -12 7 -38 21 -57 31 -77 42
-194 14 -243 -58 -50 -72 -59 -127 -32 -202 8 -23 15 -44 15 -46 0 -4 -253
145 -264 156 -22 22 39 65 300 212 154 86 284 157 290 157 6 1 137 -69 290
-154z m-379 -96 c15 -5 43 -24 61 -42 l32 -31 33 31 c45 43 69 53 125 53 85 0
162 -73 162 -153 0 -120 -94 -228 -267 -307 l-53 -23 -52 23 c-182 83 -281
203 -265 322 14 103 123 165 224 127z m-350 -255 c119 -70 143 -88 132 -98
-16 -15 -274 -166 -283 -166 -3 0 -6 79 -6 175 0 96 3 175 6 175 3 0 71 -39
151 -86z m1043 -89 c0 -96 -3 -175 -6 -175 -9 0 -267 151 -283 166 -11 10 14
28 130 97 79 47 147 86 152 87 4 0 7 -79 7 -175z m-787 -73 c41 -27 100 -59
131 -71 l56 -23 57 23 c32 13 90 45 129 71 l72 48 168 -99 c146 -86 169 -103
166 -123 -4 -32 -40 -66 -81 -78 -48 -13 -974 -13 -1022 0 -42 12 -77 46 -81
79 -3 20 19 36 162 121 91 54 166 99 167 99 1 1 36 -21 76 -47z"/>
</g>
</svg>
