<?xml version="1.0" standalone="no"?>
<!DOCTYPE svg PUBLIC "-//W3C//DTD SVG 20010904//EN"
 "http://www.w3.org/TR/2001/REC-SVG-20010904/DTD/svg10.dtd">
<svg version="1.0" xmlns="http://www.w3.org/2000/svg"
 width="512.000000pt" height="512.000000pt" viewBox="0 0 512.000000 512.000000"
 preserveAspectRatio="xMidYMid meet">

<g transform="translate(0.000000,512.000000) scale(0.100000,-0.100000)"
fill="#FFFFFF" stroke="none">
<path d="M1050 4014 l0 -1106 -44 26 c-72 42 -191 77 -285 83 -322 21 -616
-193 -698 -507 -22 -86 -22 -244 0 -330 130 -495 734 -674 1112 -328 72 66
146 177 181 274 l29 79 5 1168 5 1167 120 -102 c312 -264 345 -333 345 -718
l0 -200 150 0 150 0 0 199 c0 233 -10 323 -51 446 -60 181 -134 273 -409 510
-91 78 -185 163 -208 189 -52 56 -88 131 -97 204 l-7 52 -149 0 -149 0 0
-1106z m-261 -1313 c156 -48 261 -192 261 -356 0 -165 -100 -301 -260 -355
-180 -61 -391 39 -461 218 -31 79 -31 195 0 274 70 180 274 277 460 219z"/>
<path d="M3820 3826 l-1265 -251 -3 -1168 c-1 -643 -5 -1167 -10 -1165 -165
85 -277 114 -412 105 -292 -19 -549 -235 -615 -517 -19 -83 -19 -227 0 -310
52 -218 223 -406 444 -484 77 -27 98 -30 206 -31 99 0 133 4 195 23 244 77
410 254 470 503 19 81 20 117 20 992 0 499 4 907 8 907 5 0 440 86 967 190
527 105 967 190 977 190 17 0 18 -23 18 -486 0 -267 -3 -484 -7 -482 -167 86
-278 114 -413 105 -237 -15 -455 -160 -559 -370 -51 -103 -71 -188 -71 -302 0
-114 20 -199 71 -302 132 -266 439 -417 729 -359 256 52 450 233 527 491 16
56 18 154 21 1518 2 1392 2 1457 -15 1456 -10 0 -587 -114 -1283 -253z m1000
-409 l0 -294 -312 -61 c-172 -34 -616 -122 -985 -195 l-673 -134 0 297 0 297
773 153 c424 84 855 170 957 190 102 21 197 38 213 39 l27 1 0 -293z m-215
-1806 c132 -65 208 -188 208 -336 0 -148 -76 -271 -207 -335 -290 -143 -615
135 -522 445 65 216 318 326 521 226z m-2270 -600 c132 -65 208 -188 208 -336
0 -148 -76 -271 -207 -335 -290 -143 -615 135 -522 445 65 216 318 326 521
226z"/>
</g>
</svg>
